Coordinates
version=1
nRows=17
nColumns=40
inDegrees=yes

Units are S.I. units (second, meters, Newtons, ...)
Angles are in degrees.

endheader
time	pelvis_tilt	pelvis_list	pelvis_rotation	pelvis_tx	pelvis_ty	pelvis_tz	hip_flexion_r	hip_adduction_r	hip_rotation_r	knee_angle_r	knee_angle_r_beta	ankle_angle_r	subtalar_angle_r	mtp_angle_r	hip_flexion_l	hip_adduction_l	hip_rotation_l	knee_angle_l	knee_angle_l_beta	ankle_angle_l	subtalar_angle_l	mtp_angle_l	lumbar_extension	lumbar_bending	lumbar_rotation	arm_flex_r	arm_add_r	arm_rot_r	elbow_flex_r	pro_sup_r	wrist_flex_r	wrist_dev_r	arm_flex_l	arm_add_l	arm_rot_l	elbow_flex_l	pro_sup_l	wrist_flex_l	wrist_dev_l
      1.40000000	      1.36222333	      3.11433530	     -4.77991629	      0.08767990	      0.90034989	      1.43497345	     11.66647780	     -7.24550349	     -4.89659954	    -63.50780332	     -1.10842027	    -11.64716841	    -15.19687667	      3.02095058	      6.34026881	     -6.21743571	     12.89355383	    -13.07961658	     -0.22828237	      3.01096399	     -4.07472361	     -7.09683643	     -8.02381998	     -2.21908968	      1.96394253	      7.82764477	     -8.74579007	     18.64271740	     15.37937835	     89.95437384	      0.00000000	      0.00000000	      4.78745813	      8.72224522	    -20.21327649	     16.52247176	     89.95437384	      0.00000000	      0.00000000
      1.41000000	      1.97374598	      2.71852410	     -4.53279404	      0.09788866	      0.90182758	      1.43480135	     12.16951355	     -6.47951216	     -4.70530800	    -63.91612384	     -1.11554681	     -8.64513643	    -15.13974506	     13.98673793	      4.66656366	     -6.01404151	     12.11192708	    -12.72849280	     -0.22215411	      4.02764371	     -4.33662150	     -5.42257466	     -8.62919983	     -1.75973010	      1.65639924	      7.51226805	     -8.59793426	     17.22632725	     14.94062896	     89.95437384	      0.00000000	      0.00000000	      5.65875899	      9.16031659	    -22.23205794	     16.98159555	     89.95437384	      0.00000000	      0.00000000
      1.42000000	      2.10922090	      2.40032084	     -4.20729457	      0.10768780	      0.90246954	      1.43403110	     13.24814616	     -5.89195497	     -4.56016450	    -64.04613386	     -1.11781591	     -7.58634137	    -15.11163368	     13.71908366	      3.72294557	     -5.81425020	     11.70075494	    -12.64473807	     -0.22069231	      4.58703534	     -4.54931702	     -5.47265030	     -8.72267570	     -1.26620896	      1.15503871	      7.18181663	     -8.74119618	     17.20960044	     14.74623784	     89.95437384	      0.00000000	      0.00000000	      6.50618579	      9.21730102	    -22.19954304	     17.10536592	     89.95437384	      0.00000000	      0.00000000
      1.43000000	      2.27740198	      2.04566257	     -3.84263307	      0.11751659	      0.90311978	      1.43345760	     14.21479008	     -5.27298464	     -4.55519258	    -63.92902953	     -1.11577205	     -6.28798556	    -14.97886393	     13.38737510	      2.77475680	     -5.53020440	     11.24253725	    -12.62875198	     -0.22041330	      5.13611550	     -4.73599570	     -5.50748793	     -8.83537796	     -0.76650740	      0.63471294	      6.77054169	     -8.86968616	     17.09179647	     14.71323055	     89.95437384	      0.00000000	      0.00000000	      7.30429717	      9.37790019	    -22.38503297	     17.35645244	     89.95437384	      0.00000000	      0.00000000
      1.44000000	      2.32962731	      1.82863534	     -3.53147264	      0.12713518	      0.90348600	      1.43284134	     15.36901458	     -4.86385663	     -4.59035917	    -63.62798463	     -1.11051783	     -5.47193524	    -14.74710209	     13.09774799	      1.99040170	     -5.36969495	     11.06547412	    -12.58247151	     -0.21960556	      5.54310056	     -4.84780907	     -5.51556502	     -8.81166795	     -0.41252399	      0.18084114	      6.39663496	     -8.99415482	     16.98949315	     14.62167392	     89.95437384	      0.00000000	      0.00000000	      8.08995553	      9.55765151	    -22.42839602	     17.68255750	     89.95437384	      0.00000000	      0.00000000
      1.45000000	      2.37971893	      1.54966320	     -3.15034346	      0.13685525	      0.90378521	      1.43229627	     16.40008911	     -4.29955896	     -4.57595508	    -63.04997540	     -1.10042966	     -4.06614291	    -14.55085794	     12.71659271	      1.19062122	     -5.12502634	     10.67565775	    -12.54800282	     -0.21900396	      6.05747162	     -5.13630016	     -5.56369780	     -8.75724698	      0.00306465	     -0.28067603	      5.94534993	     -9.13883973	     16.80107021	     14.64797363	     89.95437384	      0.00000000	      0.00000000	      8.84438650	      9.75935465	    -22.53854803	     18.10278797	     89.95437384	      0.00000000	      0.00000000
      1.46000000	      2.50205684	      1.19242707	     -2.74644248	      0.14611503	      0.90414409	      1.43180621	     17.28780628	     -3.76268291	     -4.80204971	    -62.19369735	     -1.08548479	     -2.80819967	    -14.06292067	     12.20869592	      0.43350975	     -4.77801596	     10.27503399	    -12.69778151	     -0.22161810	      6.53389180	     -5.35739688	     -5.58819388	     -8.89433999	      0.49353496	     -0.72526119	      5.51096032	     -9.29381567	     16.34686973	     14.86364149	     89.95437384	      0.00000000	      0.00000000	      9.64257619	     10.03828417	    -22.74892355	     18.71322011	     89.95437384	      0.00000000	      0.00000000
      1.47000000	      2.39251032	      1.16756213	     -2.48436695	      0.15552839	      0.90393096	      1.43120502	     18.52555119	     -3.64343776	     -4.95778364	    -61.27586419	     -1.06946558	     -2.26160405	    -13.78020325	     11.92344944	     -0.10364734	     -4.78368358	     10.30236082	    -12.73033137	     -0.22218620	      6.83798662	     -5.40683370	     -5.56798264	     -8.67763353	      0.63767774	     -1.11232185	      5.08737953	     -9.43397906	     16.17066881	     14.90189957	     89.95437384	      0.00000000	      0.00000000	     10.35953846	     10.24594780	    -22.66588698	     19.18569667	     89.95437384	      0.00000000	      0.00000000
      1.48000000	      2.84553447	      0.74885484	     -2.11021214	      0.16519888	      0.90458701	      1.43085847	     18.82966058	     -3.09237364	     -5.30994517	    -59.81036022	     -1.04388771	     -1.12409659	    -12.90707842	     11.13783099	     -1.39130874	     -4.31701070	     10.24320038	    -12.60965607	     -0.22008002	      7.28992722	     -6.13569257	     -5.66594298	     -9.15833968	      1.18716479	     -1.47338283	      4.71840441	     -9.52354620	     15.24544016	     14.97801633	     89.95437384	      0.00000000	      0.00000000	     11.10387435	     10.52655945	    -22.75228695	     19.94371248	     89.95437384	      0.00000000	      0.00000000
      1.49000000	      2.68699675	      0.68602085	     -1.90321567	      0.17427282	      0.90405371	      1.43058647	     20.01753960	     -2.89883545	     -5.45817522	    -58.48554917	     -1.02076540	     -0.39864375	    -12.73567190	     10.77484664	     -1.93405009	     -4.27406537	     10.04456581	    -12.48843497	     -0.21796431	      7.65519656	     -6.44522796	     -5.70284454	     -8.97796071	      1.33247297	     -1.75521424	      4.29770839	     -9.64502841	     14.95067815	     15.15991952	     89.95437384	      0.00000000	      0.00000000	     11.79732914	     10.78870690	    -22.51627250	     20.63222564	     89.95437384	      0.00000000	      0.00000000
      1.50000000	      2.98773315	      0.43465501	     -1.57483330	      0.18381335	      0.90421356	      1.43031925	     20.40978889	     -2.62620164	     -5.94352772	    -56.66588197	     -0.98900621	      0.23812419	    -12.25860356	     10.16126014	     -3.02036937	     -3.99321620	      9.99690218	    -12.37430790	     -0.21597242	      7.95218835	     -6.76429456	     -5.76053526	     -9.29764859	      1.68509888	     -2.12179100	      3.96953689	     -9.73468524	     14.45146038	     15.25236784	     89.95437384	      0.00000000	      0.00000000	     12.46677547	     11.02333918	    -22.05804813	     21.36501351	     89.95437384	      0.00000000	      0.00000000
      1.51000000	      2.72909547	      0.58429592	     -1.41616019	      0.19286698	      0.90327476	      1.42998861	     21.65167572	     -2.79761716	     -6.19232619	    -55.04617734	     -0.96073704	      0.62391876	    -11.81124982	      9.87225878	     -3.36310354	     -4.16863754	     10.07967093	    -12.42779266	     -0.21690590	      8.21171382	     -6.72353056	     -5.72066888	     -9.01300668	      1.59443358	     -2.33466435	      3.56836814	     -9.84888458	     14.35674724	     15.37658783	     89.95437384	      0.00000000	      0.00000000	     13.15594652	     11.24992780	    -21.84773978	     21.97343728	     89.95437384	      0.00000000	      0.00000000
      1.52000000	      3.30450672	      0.12341639	     -0.91923660	      0.20244193	      0.90372655	      1.42971746	     21.42663494	     -2.35219236	     -6.92627161	    -52.64375560	     -0.91880687	      1.24460598	    -11.30557165	      9.32651832	     -4.85489419	     -3.62728764	      9.85084585	    -12.11599239	     -0.21146396	      8.54952194	     -7.33378368	     -5.88732152	     -9.69454247	      2.18942084	     -2.82693798	      3.34937916	     -9.91730132	     13.83206275	     15.42411570	     89.95437384	      0.00000000	      0.00000000	     13.81387160	     11.47305102	    -21.31546197	     22.81525921	     89.95437384	      0.00000000	      0.00000000
      1.53000000	      3.08873965	      0.19555142	     -0.75684081	      0.21144259	      0.90266336	      1.42946485	     22.41719109	     -2.45234531	     -7.24654197	    -50.59815272	     -0.88310436	      1.55129348	    -10.80676966	      9.04847202	     -5.33865674	     -3.73119661	      9.84062362	    -11.95077260	     -0.20858033	      8.91490689	     -7.48631568	     -5.92055859	     -9.50221118	      2.19965782	     -3.04866677	      3.06149920	    -10.00805800	     13.71893419	     15.45674826	     89.95437384	      0.00000000	      0.00000000	     14.46677494	     11.65854756	    -21.03319028	     23.41613878	     89.95437384	      0.00000000	      0.00000000
      1.54000000	      2.77602347	      0.42119629	     -0.65911707	      0.22049746	      0.90128420	      1.42936628	     23.49209271	     -2.80965081	     -7.73813263	    -48.49161963	     -0.84633842	      1.77370654	    -10.30657499	      8.83612240	     -5.60074720	     -3.97200966	      9.90617123	    -12.07219798	     -0.21069960	      9.14689892	     -7.40646046	     -5.87795731	     -9.18903202	      1.99656082	     -3.07221373	      2.64905423	    -10.09118870	     13.66838831	     15.55429283	     89.95437384	      0.00000000	      0.00000000	     15.11151116	     11.84285564	    -20.78126397	     24.13710167	     89.95437384	      0.00000000	      0.00000000
      1.55000000	      3.68487225	     -0.19621658	     -0.14467193	      0.23070709	      0.90207739	      1.42936571	     22.43791371	     -2.28874746	     -8.78957076	    -45.26895917	     -0.79009239	      1.93396301	     -9.24037934	      8.26630311	     -7.61833944	     -3.19420441	      9.79958877	    -11.51790782	     -0.20102541	      9.39883194	     -8.31573738	     -6.07639051	    -10.19637898	      2.75279497	     -3.60745930	      2.51404923	    -10.12899645	     13.40097193	     15.54621777	     89.95437384	      0.00000000	      0.00000000	     15.62506487	     12.00502719	    -20.03473607	     24.97798821	     89.95437384	      0.00000000	      0.00000000
      1.56000000	      3.23815449	      0.14039556	     -0.16635327	      0.23979192	      0.90028392	      1.42942865	     23.60271152	     -2.75551565	     -9.29939080	    -43.02675123	     -0.75095848	      2.06765642	     -8.81680797	      8.11015087	     -7.79103939	     -3.57237658	      9.96131249	    -11.52542386	     -0.20115659	      9.65106880	     -8.24596169	     -6.04933946	     -9.74351021	      2.42156343	     -3.54408842	      2.15173352	    -10.18932765	     13.41307708	     15.58175632	     89.95437384	      0.00000000	      0.00000000	     16.21927904	     12.13883087	    -19.84795738	     25.60168368	     89.95437384	      0.00000000	      0.00000000
